<svg width="40" height="40" viewBox="0 0 40 40" fill="none" xmlns="http://www.w3.org/2000/svg">
<path d="M37.544 13.68L34.808 4.55778C34.4111 3.22996 33.6477 2.07489 32.6262 1.25668C31.6048 0.43848 30.3772 -0.00124046 29.118 2.62839e-06H10.882C9.62278 -0.00124046 8.39523 0.43848 7.37377 1.25668C6.35231 2.07489 5.5889 3.22996 5.192 4.55778L2.456 13.68C1.72876 14.0181 1.10765 14.5875 0.670688 15.3165C0.233725 16.0456 0.000393249 16.9018 0 17.7778V28.8889C0 30.5622 0.846 32.0044 2.078 32.7622C2.052 32.9089 2 33.0422 2 33.1956V37.7778C2 38.3671 2.21071 38.9324 2.58579 39.3491C2.96086 39.7659 3.46957 40 4 40H6C6.53043 40 7.03914 39.7659 7.41421 39.3491C7.78929 38.9324 8 38.3671 8 37.7778V33.3333H32V37.7778C32 38.3671 32.2107 38.9324 32.5858 39.3491C32.9609 39.7659 33.4696 40 34 40H36C36.5304 40 37.0391 39.7659 37.4142 39.3491C37.7893 38.9324 38 38.3671 38 37.7778V33.1956C38 33.0422 37.948 32.9067 37.922 32.7622C38.5492 32.3831 39.0731 31.8234 39.4387 31.142C39.8043 30.4605 39.9982 29.6823 40 28.8889V17.7778C40 15.9356 38.984 14.3533 37.544 13.68ZM4 28.8889V17.7778H36L36.004 28.8889H4ZM10.882 4.44445H29.116C29.978 4.44445 30.742 5.05334 31.014 5.96445L33.226 13.3333H6.774L8.984 5.96445C9.1167 5.52177 9.37143 5.13673 9.7121 4.86391C10.0528 4.59109 10.4621 4.44433 10.882 4.44445Z" fill="#FF4000"/>
<path d="M9 26.6667C10.6569 26.6667 12 25.1743 12 23.3333C12 21.4924 10.6569 20 9 20C7.34315 20 6 21.4924 6 23.3333C6 25.1743 7.34315 26.6667 9 26.6667Z" fill="#FF4000"/>
<path d="M31 26.6667C32.6569 26.6667 34 25.1743 34 23.3333C34 21.4924 32.6569 20 31 20C29.3431 20 28 21.4924 28 23.3333C28 25.1743 29.3431 26.6667 31 26.6667Z" fill="#FF4000"/>
</svg>
