<svg width="60" height="60" viewBox="0 0 60 60" fill="none" xmlns="http://www.w3.org/2000/svg">
<path d="M13.9299 19.7175C13.2136 15 16.5399 10.7625 21.6211 9.21C22.5229 8.93617 23.495 9.01551 24.3404 9.43194C25.1858 9.84837 25.8411 10.5707 26.1736 11.4525L27.8049 15.8025C28.0675 16.5023 28.115 17.2646 27.9412 17.9916C27.7675 18.7186 27.3805 19.377 26.8299 19.8825L21.9774 24.3262C21.7379 24.5455 21.5594 24.8232 21.4595 25.1322C21.3596 25.4412 21.3416 25.7708 21.4074 26.0887L21.4524 26.2837L21.5686 26.7712C22.1736 29.1394 23.093 31.4159 24.3024 33.54C25.6228 35.7953 27.2594 37.8499 29.1624 39.6413L29.3124 39.7763C29.5546 39.9913 29.8485 40.1399 30.1652 40.2076C30.482 40.2753 30.8109 40.2597 31.1199 40.1625L37.3936 38.1862C38.1066 37.9624 38.8702 37.9567 39.5865 38.1698C40.3028 38.3829 40.939 38.8052 41.4136 39.3825L44.3836 42.9863C45.6211 44.4863 45.4711 46.6912 44.0499 48.015C40.1611 51.6413 34.8136 52.3838 31.0936 49.395C26.5318 45.7188 22.6875 41.2325 19.7536 36.1612C16.7911 31.0967 14.8175 25.5173 13.9299 19.7175ZM25.3374 26.3362L29.3574 22.6462C30.4593 21.6358 31.234 20.319 31.5821 18.865C31.9302 17.411 31.8359 15.8862 31.3111 14.4862L29.6836 10.1362C29.0159 8.36164 27.6978 6.90773 25.9969 6.06983C24.2961 5.23193 22.34 5.07289 20.5261 5.625C14.2149 7.55625 9.14863 13.215 10.2211 20.2837C10.9711 25.2187 12.6999 31.4963 16.5136 38.0513C19.679 43.5192 23.8259 48.3564 28.7461 52.32C34.3261 56.8013 41.7736 55.2712 46.6111 50.7637C47.9953 49.4749 48.8355 47.7065 48.9602 45.8193C49.085 43.9322 48.4849 42.0685 47.2824 40.6088L44.3124 37.0012C43.3623 35.8481 42.0894 35.0049 40.6569 34.58C39.2244 34.1551 37.6976 34.1677 36.2724 34.6162L31.0636 36.255C29.7187 34.8685 28.5406 33.3292 27.5536 31.6687C26.6012 29.9896 25.8581 28.2 25.3411 26.34" fill="#FF4000"/>
</svg>
