<svg width="40" height="40" viewBox="0 0 40 40" fill="none" xmlns="http://www.w3.org/2000/svg">
<path d="M38.6667 36.6563H36V22.3127L36.39 22.7789C36.6406 23.0779 36.9804 23.2457 37.3345 23.2454C37.6886 23.245 38.0281 23.0765 38.2783 22.7769C38.5285 22.4773 38.6689 22.0712 38.6686 21.6479C38.6683 21.2246 38.5273 20.8188 38.2767 20.5198L21.885 0.932847C21.385 0.335534 20.7069 0 20 0C19.2931 0 18.615 0.335534 18.115 0.932847L1.72333 20.5198C1.47337 20.8188 1.33302 21.2243 1.33318 21.6471C1.33334 22.0698 1.47398 22.4751 1.72417 22.7739C1.97435 23.0727 2.31359 23.2404 2.66726 23.2403C3.02092 23.2401 3.36003 23.072 3.61 22.7729L4 22.3127V36.6563H1.33333C0.979711 36.6563 0.640573 36.8242 0.390524 37.1231C0.140476 37.422 0 37.8273 0 38.25C0 38.6727 0.140476 39.0781 0.390524 39.377C0.640573 39.6758 0.979711 39.8438 1.33333 39.8438H38.6667C39.0203 39.8438 39.3594 39.6758 39.6095 39.377C39.8595 39.0781 40 38.6727 40 38.25C40 37.8273 39.8595 37.422 39.6095 37.1231C39.3594 36.8242 39.0203 36.6563 38.6667 36.6563ZM6.66667 19.1253L20 3.18797L33.3333 19.1253V36.6563H25.3333V25.5002C25.3333 25.0775 25.1929 24.6721 24.9428 24.3732C24.6928 24.0744 24.3536 23.9065 24 23.9065H16C15.6464 23.9065 15.3072 24.0744 15.0572 24.3732C14.8071 24.6721 14.6667 25.0775 14.6667 25.5002V36.6563H6.66667V19.1253ZM22.6667 36.6563H17.3333V27.0939H22.6667V36.6563Z" fill="#FF4000"/>
</svg>
