<svg width="105" height="105" viewBox="0 0 105 105" fill="none" xmlns="http://www.w3.org/2000/svg">
<g clip-path="url(#clip0_83_226)">
<path d="M87.7538 6C86.7432 6 85.9238 6.81938 85.9238 7.82996V93.4945C85.9238 93.7784 85.99 94.0584 86.117 94.3128L91.0483 104.174C91.3582 104.794 91.9917 105.186 92.685 105.186C93.378 105.186 94.0115 104.794 94.3218 104.174L99.2527 94.3128C99.3797 94.0584 99.4459 93.7788 99.4459 93.4945V7.82996C99.4459 6.81938 98.6265 6 97.6159 6H87.7538ZM95.786 93.0618L92.685 99.2633L89.5838 93.0618V9.65993H95.786V93.0618Z" fill="white"/>
<path d="M101.34 19.0668V48.2601C101.34 49.2707 102.159 50.09 103.17 50.09C104.181 50.09 105 49.2707 105 48.2601V19.0668C105 18.0562 104.181 17.2368 103.17 17.2368C102.159 17.2368 101.34 18.0562 101.34 19.0668Z" fill="white"/>
<path d="M62.0272 57.8419H15.6972C14.6866 57.8419 13.8672 58.6616 13.8672 59.6722C13.8672 60.6828 14.6866 61.5018 15.6972 61.5018H62.0272C63.0378 61.5018 63.8572 60.6828 63.8572 59.6722C63.8572 58.6616 63.0378 57.8419 62.0272 57.8419Z" fill="white"/>
<path d="M62.0272 84.9199H15.6972C14.6866 84.9199 13.8672 85.7393 13.8672 86.7499C13.8672 87.7605 14.6866 88.5799 15.6972 88.5799H62.0272C63.0378 88.5799 63.8572 87.7605 63.8572 86.7499C63.8572 85.7393 63.0378 84.9199 62.0272 84.9199Z" fill="white"/>
<path d="M62.0272 46.0883H15.6972C14.6866 46.0883 13.8672 46.9076 13.8672 47.9182C13.8672 48.9288 14.6866 49.7482 15.6972 49.7482H62.0272C63.0378 49.7482 63.8572 48.9288 63.8572 47.9182C63.8572 46.9076 63.0378 46.0883 62.0272 46.0883Z" fill="white"/>
<path d="M15.6972 37.9956H43.2012C44.2117 37.9956 45.0311 37.1759 45.0311 36.1653C45.0311 35.1547 44.2117 34.3357 43.2012 34.3357H15.6972C14.6866 34.3357 13.8672 35.1547 13.8672 36.1653C13.8672 37.1759 14.6866 37.9956 15.6972 37.9956Z" fill="white"/>
<path d="M15.6972 26.2423H43.2012C44.2117 26.2423 45.0311 25.4233 45.0311 24.4127C45.0311 23.4021 44.2117 22.5824 43.2012 22.5824H15.6972C14.6866 22.5824 13.8672 23.4021 13.8672 24.4127C13.8672 25.4233 14.6866 26.2423 15.6972 26.2423Z" fill="white"/>
<path d="M1.82498 105.039H75.8995C76.9074 105.039 77.7244 104.222 77.7244 103.214V32.3039C77.7244 32.3012 77.7241 32.2989 77.7241 32.2966C77.7238 32.2377 77.7208 32.1792 77.7151 32.122C77.7108 32.0774 77.7032 32.0339 77.6955 31.9903C77.6929 31.9753 77.6915 31.96 77.6889 31.9451C77.6786 31.8939 77.6653 31.8427 77.6506 31.7924C77.6486 31.7858 77.6473 31.7791 77.6453 31.7722C77.6297 31.7223 77.6114 31.6727 77.5921 31.6238C77.5894 31.6175 77.5874 31.6109 77.5851 31.6046C77.5662 31.5587 77.5445 31.5144 77.5216 31.4709C77.5169 31.4619 77.5133 31.4519 77.5083 31.4429C77.487 31.4034 77.4631 31.3651 77.4391 31.3269C77.4311 31.3146 77.4242 31.3013 77.4162 31.2893C77.3932 31.2551 77.3676 31.2221 77.342 31.1892C77.3311 31.1749 77.3207 31.1596 77.3094 31.1453C77.2778 31.1071 77.2439 31.0705 77.2087 31.0346C77.202 31.0276 77.1967 31.0203 77.1897 31.0136L52.8565 6.68072C52.8143 6.63849 52.77 6.59891 52.7245 6.56134C52.7125 6.55169 52.6995 6.54305 52.6876 6.53374C52.6526 6.50647 52.6174 6.4792 52.5811 6.45493C52.5705 6.44794 52.5589 6.44162 52.5479 6.43464C52.5086 6.40937 52.4687 6.38476 52.4278 6.36248C52.4205 6.35849 52.4122 6.3555 52.4049 6.35151C52.3593 6.3279 52.3134 6.30528 52.2662 6.286C52.2609 6.28367 52.2556 6.282 52.2506 6.28001C52.2007 6.25972 52.1498 6.24143 52.0986 6.22547C52.0926 6.22381 52.087 6.22281 52.081 6.22115C52.0301 6.20585 51.9782 6.19255 51.9257 6.18191C51.9114 6.17925 51.8961 6.17792 51.8818 6.17526C51.8376 6.16761 51.7934 6.15963 51.7488 6.15531C51.6886 6.14899 51.6278 6.146 51.5666 6.146H1.82498C0.81705 6.14633 0 6.96338 0 7.97131V103.214C0 104.222 0.81705 105.039 1.82498 105.039ZM71.4943 30.4796L53.3929 30.4816L53.3919 12.3778L71.4943 30.4796ZM3.64995 9.79661H49.7416L49.7429 32.3069C49.7429 32.7911 49.9351 33.2553 50.2773 33.5975C50.6195 33.9393 51.084 34.1315 51.5679 34.1315L74.0748 34.1289V101.389H3.64995V9.79661Z" fill="white"/>
</g>
<defs>
<clipPath id="clip0_83_226">
<rect width="105" height="105" fill="white"/>
</clipPath>
</defs>
</svg>
