<svg width="40" height="40" viewBox="0 0 40 40" fill="none" xmlns="http://www.w3.org/2000/svg">
<path d="M19.9931 3.2353C22.3449 1.00551 25.4079 -0.149189 28.5342 0.0154727C31.6606 0.180134 34.6049 1.65124 36.7445 4.11759C38.884 6.58393 40.0509 9.85205 39.9983 13.2306C39.9457 16.6091 38.6777 19.8331 36.4626 22.2204L26.3526 33.1368L19.9912 40L5.90214 24.7923L3.52171 22.2183C1.3133 19.8294 0.0510941 16.6077 0.0015174 13.2331C-0.0480593 9.85853 1.11887 6.59519 3.256 4.1319C5.39312 1.66862 8.33321 0.198137 11.4557 0.0308476C14.5781 -0.136441 17.6386 1.01255 19.9912 3.2353M26.3487 27.2304L33.7242 19.2662C34.4841 18.4458 35.0868 17.4719 35.4981 16.4001C35.9094 15.3282 36.121 14.1795 36.121 13.0193C36.121 11.8591 35.9094 10.7104 35.4981 9.63851C35.0868 8.56667 34.4841 7.59277 33.7242 6.77241C32.9642 5.95206 32.0621 5.30132 31.0692 4.85735C30.0764 4.41338 29.0122 4.18487 27.9376 4.18487C26.8629 4.18487 25.7988 4.41338 24.8059 4.85735C23.813 5.30132 22.9109 5.95206 22.151 6.77241L19.9912 9.10403L17.8295 6.77033C16.2948 5.11355 14.2133 4.18278 12.0429 4.18278C9.87249 4.18278 7.791 5.11355 6.2563 6.77033C4.7216 8.4271 3.85942 10.6742 3.85942 13.0172C3.85942 15.3602 4.7216 17.6073 6.2563 19.2641L8.6406 21.8381L19.9912 34.0916L26.3487 27.2284" fill="#FF4000"/>
</svg>
