<svg width="40" height="44" viewBox="0 0 40 44" fill="none" xmlns="http://www.w3.org/2000/svg">
<path d="M3.9 36L0.0999999 22.6C-9.68575e-08 22.2 0.0419998 21.7333 0.226 21.2C0.41 20.6667 0.801333 20.3 1.4 20.1L4 19.2V10C4 8.9 4.392 7.95867 5.176 7.176C5.96 6.39333 6.90133 6.00133 8 6H14V0H26V6H32C33.1 6 34.042 6.392 34.826 7.176C35.61 7.96 36.0013 8.90133 36 10V19.2L38.6 20.1C39.3 20.3667 39.7167 20.7587 39.85 21.276C39.9833 21.7933 40 22.2347 39.9 22.6L36.1 36C34.4333 36 32.9167 35.6087 31.55 34.826C30.1833 34.0433 29 33.1013 28 32C27 33.1 25.8167 34.042 24.45 34.826C23.0833 35.61 21.6 36.0013 20 36C18.4 35.9987 16.9167 35.6073 15.55 34.826C14.1833 34.0447 13 33.1027 12 32C11 33.1 9.81667 34.042 8.45 34.826C7.08333 35.61 5.56667 36.0013 3.9 36ZM0 44V40H4C5.4 40 6.78333 39.7833 8.15 39.35C9.51667 38.9167 10.8 38.2667 12 37.4C13.2 38.2667 14.4833 38.9 15.85 39.3C17.2167 39.7 18.6 39.9 20 39.9C21.4 39.9 22.7833 39.7 24.15 39.3C25.5167 38.9 26.8 38.2667 28 37.4C29.2 38.2667 30.4833 38.9167 31.85 39.35C33.2167 39.7833 34.6 40 36 40H40V44H36C34.6 44 33.2333 43.8333 31.9 43.5C30.5667 43.1667 29.2667 42.6667 28 42C26.7333 42.6667 25.4247 43.1667 24.074 43.5C22.7233 43.8333 21.3653 44 20 44C18.6347 44 17.2767 43.8333 15.926 43.5C14.5753 43.1667 13.2667 42.6667 12 42C10.7333 42.6667 9.43333 43.1667 8.1 43.5C6.76667 43.8333 5.4 44 4 44H0ZM8 17.9L20 14L32 17.9V10H8V17.9ZM20 32C21.5667 32 22.892 31.45 23.976 30.35C25.06 29.25 26.4013 27.7667 28 25.9C29.6 27.7 30.6833 28.9333 31.25 29.6C31.8167 30.2667 32.5 30.8333 33.3 31.3L35.5 23.3L20 18.2L4.4 23.3L6.7 31.2C7.5 30.7333 8.18333 30.2 8.75 29.6C9.31667 29 10.4 27.7667 12 25.9C13.6667 27.8 15.0253 29.292 16.076 30.376C17.1267 31.46 18.4347 32.0013 20 32Z" fill="#FF4000"/>
</svg>
