<svg width="106" height="106" viewBox="0 0 106 106" fill="none" xmlns="http://www.w3.org/2000/svg">
<g clip-path="url(#clip0_83_236)">
<path d="M55.1606 97.2109V93.4007C55.1606 92.6735 54.5696 92.0832 53.8419 92.0832H52.1526C51.4216 92.0832 50.8358 92.6735 50.8358 93.4007V97.2541L45.7306 84.7579C44.0882 84.7579 42.6173 85.7748 42.0372 87.3114L39.5321 93.9457L39.1182 95.0238C42.5651 98.3227 47.1815 100.408 52.274 100.589C52.5138 100.598 52.7546 100.603 52.9965 100.603C53.2791 100.603 53.5602 100.596 53.8401 100.584C58.8793 100.375 63.4452 98.3016 66.8638 95.0357L66.4453 93.9455L63.9033 87.2772C63.3252 85.7601 61.8703 84.7577 60.2468 84.7577L55.1606 97.2109Z" fill="white"/>
<path d="M82.0375 1.21007C69.7201 1.21007 59.6999 11.2307 59.6999 23.5467C59.6999 28.1458 61.0976 32.4242 63.4896 35.9807L52.9962 46.4737L42.5804 36.0571C45.3361 32.303 46.9666 27.6744 46.9666 22.6718C46.9671 10.1711 36.7928 0 24.2915 0C11.7905 0 1.62329 10.1711 1.62329 22.6718C1.62329 35.1729 11.7905 45.344 24.2915 45.344C29.1995 45.344 33.7482 43.7758 37.464 41.1149L49.3976 53.0497V55.286C37.0451 57.0402 27.5125 67.6851 27.5125 80.5153C27.5125 94.5671 38.9463 106 52.9962 106C67.0498 106 78.4818 94.5671 78.4818 80.5153C78.4818 67.684 68.9492 57.0386 56.5931 55.2856V53.0524L68.4125 41.2341C72.186 44.1474 76.9123 45.8834 82.0375 45.8834C94.3567 45.8834 104.377 35.863 104.377 23.5467C104.377 11.2307 94.3567 1.21007 82.0375 1.21007ZM24.2915 41.746C13.7763 41.746 5.21995 33.1895 5.21995 22.6718C5.21995 12.1545 13.776 3.59733 24.2915 3.59733C34.8103 3.59733 43.3697 12.1545 43.3697 22.6718C43.3697 33.1895 34.8103 41.746 24.2915 41.746ZM74.8852 80.5153C74.8852 92.584 65.0679 102.402 52.9965 102.402C40.9302 102.402 31.1111 92.584 31.1111 80.5153C31.1111 68.4468 40.9302 58.6282 52.9965 58.6282C65.0681 58.6282 74.8852 68.4468 74.8852 80.5153ZM82.0375 42.2856C71.7022 42.2856 63.297 33.8802 63.297 23.5467C63.297 13.2135 71.7025 4.80808 82.0375 4.80808C92.3676 4.80808 100.778 13.2135 100.778 23.5467C100.778 33.8802 92.3676 42.2856 82.0375 42.2856Z" fill="white"/>
<path d="M44.8164 72.2694C44.8164 75.9197 46.1465 79.1573 48.1885 81.1583C49.5389 82.4815 51.2001 83.265 52.9964 83.265C54.7918 83.265 56.4532 82.4815 57.804 81.1583C59.8465 79.1573 61.1779 75.9197 61.1779 72.2694C61.1779 66.2053 57.5065 61.2725 52.9964 61.2725C48.4845 61.2725 44.8164 66.2053 44.8164 72.2694ZM58.5961 72.2694C58.5961 76.83 56.0318 80.682 52.9964 80.682C49.9607 80.682 47.3983 76.83 47.3983 72.2694C47.3983 67.7088 49.9607 63.8545 52.9964 63.8545C56.0318 63.8543 58.5961 67.7088 58.5961 72.2694Z" fill="white"/>
<path d="M51.7386 90.3968H54.2439C54.6405 90.3968 55.0096 90.1932 55.2195 89.8572L55.7722 88.9752C56.1483 88.3802 56.169 87.6282 55.8278 87.0114C55.4864 86.3965 54.8368 86.0137 54.1349 86.0137H51.8442C51.1406 86.0137 50.4945 86.3963 50.1497 87.0114C49.8135 87.628 49.8342 88.3802 50.2067 88.9752L50.7614 89.8572C50.9726 90.1932 51.3382 90.3968 51.7386 90.3968Z" fill="white"/>
<path d="M15.8371 21.6209H20.3181C20.6454 21.979 20.9951 22.292 21.3645 22.5614V24.7656H20.3783L22.3966 29.7022C23.0754 31.3549 25.7726 31.3571 26.4514 29.7004L28.4661 24.7656H27.4835V22.5594C27.8587 22.2905 28.2026 21.979 28.5265 21.6209H33.0168C33.401 21.6209 33.7582 21.4034 33.9354 21.0585C34.1149 20.7137 34.08 20.2978 33.8548 19.9845C32.8231 18.5447 32.0263 16.6495 31.7984 15.0548C31.6759 14.1979 30.194 5.60059 24.4222 5.60059C19.1939 5.60059 17.0465 12.6408 17.0465 15.0863C17.0465 16.6928 16.0253 18.5537 14.9988 19.9843C14.7718 20.2976 14.7391 20.7133 14.9166 21.0583C15.0941 21.4034 15.451 21.6209 15.8371 21.6209ZM24.4445 12.2723C26.7754 12.2723 28.6382 13.5466 28.783 15.1442C28.697 18.6116 26.7464 21.5018 24.4224 21.5018C22.1295 21.5018 20.2012 18.6713 20.0747 15.2517C20.1368 13.6024 22.0545 12.2723 24.4445 12.2723Z" fill="white"/>
<path d="M35.346 32.8007L32.8238 26.2954C32.4885 25.4313 31.6563 24.8631 30.7294 24.8653L28.4257 30.5056C27.7543 32.1417 26.1879 33.1951 24.422 33.1951C22.6636 33.1951 21.09 32.1415 20.422 30.5069L18.1221 24.8635C17.0461 25.1559 16.1725 25.9412 15.7673 26.9799L13.4981 32.8005L12.9567 34.2083C12.6603 34.9875 12.9348 35.8668 13.6244 36.3359C16.7038 38.436 20.422 39.6717 24.422 39.6717C28.4257 39.6717 32.1401 38.4362 35.2233 36.3359C35.9097 35.8686 36.1912 34.9857 35.8876 34.2083L35.346 32.8007Z" fill="white"/>
<path d="M92.8333 33.5031L90.8636 28.3325C90.4031 27.1242 89.3083 26.2659 88.0244 26.1096C88.0244 26.1096 88.0241 26.1094 88.0237 26.1094C87.5109 29.0011 84.9959 31.2224 81.9573 31.2224C78.9172 31.2224 76.4022 29.0029 75.886 26.1094C74.6127 26.2724 73.5332 27.1208 73.0729 28.3194L71.082 33.5034L70.555 34.8796C70.2413 35.6899 70.5424 36.6039 71.2703 37.0786C74.3535 39.0814 78.0177 40.257 81.9578 40.257C85.8981 40.257 89.5626 39.0812 92.6437 37.0786C93.3716 36.6057 93.6691 35.6881 93.361 34.8796L92.8333 33.5031Z" fill="white"/>
<path d="M78.824 23.7634V26.0772H78.0747C78.5443 27.82 80.0663 29.1323 81.9574 29.1323C83.8472 29.1323 85.3708 27.8202 85.8385 26.0772H85.091V23.7634C87.1508 22.2567 88.5688 19.354 88.5688 15.9863C88.5688 11.0866 85.602 7.09875 81.9574 7.09875C78.3114 7.09875 75.3445 11.0866 75.3445 15.9863C75.3445 19.354 76.7627 22.2565 78.824 23.7634ZM81.9574 9.18671C84.4064 9.18671 86.4822 12.3003 86.4822 15.9861C86.4822 19.672 84.4066 22.7835 81.9574 22.7835C79.5071 22.7835 77.4347 19.6722 77.4347 15.9861C77.4347 12.3001 79.5071 9.18671 81.9574 9.18671Z" fill="white"/>
</g>
<defs>
<clipPath id="clip0_83_236">
<rect width="106" height="106" fill="white"/>
</clipPath>
</defs>
</svg>
