<svg width="54" height="54" viewBox="0 0 54 54" fill="none" xmlns="http://www.w3.org/2000/svg">
<path d="M18.2188 0L34.0259 8.75502L52.0501 1.62551V22.6237H46.8453V9.03664L36.4357 13.1548V22.6237H31.2309V12.925L20.8212 7.16163V37.2632L25.6825 39.9559L23.0593 44.2222L18.0262 41.4332L0.00195312 48.5627V10.089L18.2188 0ZM15.6164 37.0334V7.16163L5.20677 12.925V41.1516L15.6164 37.0334ZM41.6405 30.0349C39.7425 30.0349 37.9221 30.7506 36.58 32.0246C35.2379 33.2987 34.4839 35.0266 34.4839 36.8284C34.4839 39.9213 36.3967 42.8907 38.6868 45.282C39.746 46.3888 40.8129 47.2929 41.6405 47.9377C42.4681 47.2954 43.5351 46.3888 44.5942 45.282C46.8844 42.8907 48.7971 39.9213 48.7971 36.8284C48.7971 35.0266 48.0431 33.2987 46.701 32.0246C45.3589 30.7506 43.5386 30.0349 41.6405 30.0349ZM41.6405 54L40.1962 53.0884L40.191 53.086L40.1806 53.0785L40.1493 53.0588L40.0452 52.9896L39.6887 52.75C37.934 51.5208 36.3086 50.1334 34.8352 48.6072C32.2458 45.9046 29.2791 41.7716 29.2791 36.8284C29.2791 35.2874 29.5988 33.7615 30.22 32.3379C30.8412 30.9142 31.7518 29.6206 32.8996 28.531C34.0475 27.4414 35.4102 26.577 36.91 25.9873C38.4097 25.3976 40.0172 25.0941 41.6405 25.0941C43.2638 25.0941 44.8713 25.3976 46.371 25.9873C47.8708 26.577 49.2335 27.4414 50.3814 28.531C51.5292 29.6206 52.4398 30.9142 53.061 32.3379C53.6822 33.7615 54.002 35.2874 54.002 36.8284C54.002 41.7716 51.0352 45.9046 48.4458 48.6072C46.8725 50.2341 45.1266 51.7027 43.2358 52.9896L43.1317 53.0588L43.1005 53.0785L43.09 53.086H43.0848L41.6405 54ZM38.3875 34.9756H44.8935V39.9164H38.3875V34.9756Z" fill="#FF4000"/>
</svg>
