<svg width="132" height="131" viewBox="0 0 132 131" fill="none" xmlns="http://www.w3.org/2000/svg">
<path d="M101.42 75.2759L71.1752 22.9577C70.4184 21.6532 69.4101 20.5093 68.2078 19.5915C67.0055 18.6737 65.6329 17.9999 64.1682 17.6086C61.1881 16.8177 58.0143 17.2195 55.3297 18.7275L48.7517 22.5265C48.5835 22.5985 48.436 22.7111 48.3227 22.854L47.9432 23.3289C47.5451 23.7498 47.2662 24.2676 47.1347 24.8299C44.7892 31.9354 41.8683 38.8409 38.4007 45.4788C35.9638 49.5644 32.6745 53.0856 28.7537 55.806L18.8867 64.4738C16.8867 66.2448 15.5556 68.6403 15.1137 71.264C14.8327 73.0494 14.9434 74.8741 15.4382 76.6132C14.0852 77.3555 12.9082 78.3817 11.9897 79.6152C11.0593 80.824 10.3806 82.2045 9.99323 83.6762C9.70147 85.178 9.70147 86.7213 9.99323 88.223C10.4123 91.2413 12.0031 93.9776 14.4262 95.8483C15.6362 96.7653 17.0277 97.4312 18.5127 97.8024C19.4807 98.0608 20.4689 98.1845 21.4772 98.1736C22.0126 98.2281 22.5516 98.2281 23.0942 98.1736C24.5902 97.9934 26.0257 97.4804 27.2962 96.678C28.4842 98.0044 29.9857 99.0142 31.6632 99.6255C32.9667 100.133 34.3582 100.39 35.7607 100.368C36.5271 100.386 37.2824 100.297 38.0267 100.1L46.8102 115.673C47.859 117.417 49.3423 118.865 51.1174 119.876C52.8926 120.887 54.9 121.429 56.9467 121.448C59.5053 121.417 61.9841 120.56 64.0077 119.006C66.0313 117.451 67.4894 115.285 68.1612 112.835C68.9216 109.874 68.5165 106.737 67.0282 104.063L60.4502 92.7207C62.2249 92.3277 64.0216 92.113 65.8402 92.0766C73.5127 92.3987 81.1412 93.3648 88.6432 94.9695H90.5297L91.3932 94.5874L92.2017 94.1071L97.9712 90.7939C100.622 89.271 102.564 86.7711 103.361 83.84C103.861 80.8433 103.164 77.7715 101.42 75.2759ZM36.0302 92.5078C35.2631 92.7754 34.4269 92.7754 33.6597 92.5078C32.9011 92.24 32.2673 91.7061 31.8777 91.0068L23.6827 76.7769L23.1492 75.8654C22.7343 75.145 22.5827 74.3046 22.72 73.4861C22.8573 72.6676 23.2751 71.9213 23.9027 71.3732L29.9912 66.024L32.2572 69.9813L43.9557 90.3136L36.0302 92.5078ZM94.7372 81.8095C94.4725 82.7195 93.8767 83.4996 93.0652 83.9983L90.0457 85.7122L56.2977 27.3408L59.3722 25.5777C59.7657 25.3452 60.2036 25.1965 60.6581 25.1411C61.1126 25.0856 61.5737 25.1247 62.0122 25.2557C62.4614 25.3667 62.8836 25.5659 63.2539 25.8415C63.6242 26.1171 63.9351 26.4636 64.1682 26.8604L94.4127 79.1294C94.6816 79.576 94.8499 80.0752 94.9059 80.5925C94.9619 81.1098 94.9044 81.6329 94.7372 82.1261V81.8095ZM93.3347 50.0256C92.626 50.0376 91.927 49.8605 91.3108 49.513C90.6945 49.1654 90.1836 48.6601 89.8312 48.0497C89.3343 47.1432 89.2085 46.0815 89.4799 45.0853C89.7513 44.0891 90.3992 43.235 91.2887 42.7005L104.764 34.9388C105.674 34.4316 106.749 34.299 107.756 34.5695C108.764 34.84 109.625 35.4919 110.154 36.3852C110.651 37.2918 110.776 38.3535 110.505 39.3497C110.234 40.3459 109.586 41.2 108.696 41.7344L95.2212 49.4907C94.6495 49.8277 93.9995 50.012 93.3347 50.0256ZM118.184 68.966H102.608C102.077 68.966 101.551 68.8623 101.061 68.6606C100.57 68.459 100.125 68.1635 99.7492 67.791C99.3739 67.4184 99.0761 66.9762 98.8729 66.4894C98.6698 66.0027 98.5652 65.481 98.5652 64.9542C98.5652 64.4273 98.6698 63.9056 98.8729 63.4189C99.0761 62.9321 99.3739 62.4899 99.7492 62.1173C100.125 61.7448 100.57 61.4493 101.061 61.2477C101.551 61.046 102.077 60.9423 102.608 60.9423H118.184C119.256 60.9423 120.284 61.365 121.042 62.1173C121.8 62.8697 122.226 63.8901 122.226 64.9542C122.226 66.0182 121.8 67.0386 121.042 67.791C120.284 68.5434 119.256 68.966 118.184 68.966ZM80.6132 30.9269C79.911 30.9326 79.2206 30.7477 78.6167 30.392C77.7092 29.8743 77.0427 29.0237 76.7609 28.0233C76.479 27.0228 76.6043 25.9525 77.1097 25.0428L84.8702 11.5607C85.4286 10.6835 86.3073 10.0547 87.3223 9.80598C88.3373 9.55726 89.4099 9.70793 90.3155 10.2264C91.2211 10.7449 91.8894 11.591 92.1805 12.5876C92.4716 13.5841 92.3629 14.6538 91.8772 15.5726L84.1167 29.0001C83.7538 29.5975 83.2392 30.0899 82.6244 30.4281C82.0095 30.7662 81.316 30.9382 80.6132 30.9269Z" fill="#FF4000"/>
</svg>
