<svg width="44" height="38" viewBox="0 0 44 38" fill="none" xmlns="http://www.w3.org/2000/svg">
<path d="M14.73 14L20.4 10H27.384L25.2 4H20V0H28L30.184 6H38V12H32.368L35.28 20.004C37.4895 20.0742 39.5959 20.9552 41.1975 22.479C42.7991 24.0027 43.7839 26.0626 43.9641 28.2659C44.1443 30.4692 43.5072 32.6617 42.1745 34.4254C40.8417 36.1891 38.9064 37.4006 36.7377 37.8289C34.5689 38.2572 32.3184 37.8723 30.4152 36.7477C28.5121 35.623 27.0894 33.8372 26.4185 31.7308C25.7476 29.6245 25.8754 27.3448 26.7775 25.3266C27.6797 23.3085 29.2931 21.6929 31.31 20.788L28.838 14H26.944L23.78 25.74L17.93 27.878C17.9767 28.246 18 28.62 18 29C17.9995 30.6499 17.5455 32.2679 16.6876 33.6771C15.8297 35.0864 14.6009 36.2328 13.1355 36.9909C11.6701 37.749 10.0245 38.0897 8.3786 37.9758C6.73267 37.8619 5.14971 37.2977 3.80274 36.345C2.45577 35.3922 1.39661 34.0875 0.741025 32.5735C0.0854372 31.0595 -0.141353 29.3944 0.0854386 27.7601C0.312231 26.1259 0.983878 24.5855 2.02698 23.3072C3.07008 22.0289 4.44449 21.062 6 20.512V18H2V14H14.73ZM9 34C10.3261 34 11.5979 33.4732 12.5355 32.5355C13.4732 31.5979 14 30.3261 14 29C14 27.6739 13.4732 26.4021 12.5355 25.4645C11.5979 24.5268 10.3261 24 9 24C7.67392 24 6.40215 24.5268 5.46447 25.4645C4.52679 26.4021 4 27.6739 4 29C4 30.3261 4.52679 31.5979 5.46447 32.5355C6.40215 33.4732 7.67392 34 9 34ZM35 34C36.3261 34 37.5979 33.4732 38.5355 32.5355C39.4732 31.5979 40 30.3261 40 29C40 27.6739 39.4732 26.4021 38.5355 25.4645C37.5979 24.5268 36.3261 24 35 24C33.6739 24 32.4022 24.5268 31.4645 25.4645C30.5268 26.4021 30 27.6739 30 29C30 30.3261 30.5268 31.5979 31.4645 32.5355C32.4022 33.4732 33.6739 34 35 34Z" fill="#FF4000"/>
</svg>
