<svg width="48" height="48" viewBox="0 0 48 48" fill="none" xmlns="http://www.w3.org/2000/svg">
<path d="M46.5095 36.1565L47.8433 38.8436C48.2116 39.5857 47.9086 40.4857 47.1666 40.8541L41.0292 43.9372C39.5246 44.6841 37.6958 44.0491 36.9802 42.5257L31.0949 30H18C16.507 30 15.2413 28.9022 15.0301 27.4242C11.8531 5.18512 12.0356 6.56662 12 6C12 2.59143 14.8423 -0.153285 18.2861 0.00665244C21.4053 0.151496 23.9156 2.7165 23.9978 5.838C24.0792 8.92546 21.8273 11.5027 18.8783 11.9354L19.3162 15.0001H31.5C32.3285 15.0001 33 15.6716 33 16.5001V19.5001C33 20.3286 32.3285 21.0001 31.5 21.0001H20.1733L20.6019 24.0001H33C33.5696 24.0001 34.1274 24.1623 34.6082 24.4676C35.089 24.7729 35.473 25.2088 35.7152 25.7243L41.1072 37.2L44.4989 35.4798C45.2409 35.1114 46.1411 35.4144 46.5095 36.1565ZM29.1898 33H26.8924C26.1622 38.0816 21.7804 42 16.5 42C10.7103 42 6 37.2897 6 31.5C6 27.6089 8.12756 24.2054 11.2804 22.3916C10.9324 19.9574 10.6388 17.9047 10.3909 16.1729C4.30838 18.606 0 24.559 0 31.5C0 40.5982 7.40184 48 16.5 48C23.2378 48 29.0443 43.9399 31.6041 38.1382L29.1898 33Z" fill="#FF4000"/>
</svg>
