<svg width="132" height="132" viewBox="0 0 132 132" fill="none" xmlns="http://www.w3.org/2000/svg">
<g clip-path="url(#clip0_187_208)">
<path d="M102.667 110H22.0003V29.3333H70.4737L77.807 22H22.0003C20.0554 22 18.1901 22.7726 16.8149 24.1479C15.4396 25.5231 14.667 27.3884 14.667 29.3333V110C14.667 111.945 15.4396 113.81 16.8149 115.185C18.1901 116.561 20.0554 117.333 22.0003 117.333H102.667C104.612 117.333 106.477 116.561 107.852 115.185C109.228 113.81 110 111.945 110 110V55L102.667 62.3333V110Z" fill="#FF4000"/>
<path d="M122.943 21.4133L110.586 9.05667C110.038 8.50678 109.386 8.07049 108.669 7.77281C107.952 7.47513 107.183 7.3219 106.406 7.3219C105.63 7.3219 104.861 7.47513 104.144 7.77281C103.426 8.07049 102.775 8.50678 102.226 9.05667L51.9563 59.62L47.8863 77.2567C47.713 78.1116 47.7312 78.9943 47.9397 79.8413C48.1483 80.6884 48.5419 81.4786 49.0924 82.1553C49.6429 82.832 50.3365 83.3783 51.1233 83.7549C51.9102 84.1315 52.7707 84.3291 53.643 84.3333C54.0939 84.3827 54.5488 84.3827 54.9997 84.3333L72.783 80.41L122.943 29.7733C123.493 29.2249 123.929 28.5735 124.227 27.8562C124.525 27.1389 124.678 26.3699 124.678 25.5933C124.678 24.8167 124.525 24.0478 124.227 23.3305C123.929 22.6132 123.493 21.9617 122.943 21.4133ZM68.9697 73.6267L55.5497 76.5967L58.6663 63.2867L96.5063 25.19L106.846 35.53L68.9697 73.6267ZM110.99 31.3867L100.65 21.0467L106.333 15.2533L116.746 25.6667L110.99 31.3867Z" fill="#FF4000"/>
</g>
<defs>
<clipPath id="clip0_187_208">
<rect width="132" height="132" fill="white"/>
</clipPath>
</defs>
</svg>
