<svg width="22" height="20" viewBox="0 0 22 20" fill="none" xmlns="http://www.w3.org/2000/svg">
<path d="M11.0449 0C12.4633 0 13.8237 0.526784 14.8267 1.46447C15.8297 2.40215 16.3932 3.67392 16.3932 5C16.3932 6.32608 15.8297 7.59785 14.8267 8.53553C13.8237 9.47322 12.4633 10 11.0449 10C9.62638 10 8.26601 9.47322 7.263 8.53553C6.25998 7.59785 5.6965 6.32608 5.6965 5C5.6965 3.67392 6.25998 2.40215 7.263 1.46447C8.26601 0.526784 9.62638 0 11.0449 0ZM11.0449 12.5C16.9548 12.5 21.7416 14.7375 21.7416 17.5V20H0.348145V17.5C0.348145 14.7375 5.13492 12.5 11.0449 12.5Z" fill="#787B80"/>
</svg>
