<svg width="57" height="48" viewBox="0 0 57 48" fill="none" xmlns="http://www.w3.org/2000/svg">
<path d="M28.8247 8.12558C31.307 8.12558 33.6877 8.96517 35.443 10.4596C37.1982 11.9541 38.1843 13.9811 38.1843 16.0946C38.1843 18.2081 37.1982 20.235 35.443 21.7295C33.6877 23.224 31.307 24.0636 28.8247 24.0636C26.3424 24.0636 23.9617 23.224 22.2065 21.7295C20.4512 20.235 19.4651 18.2081 19.4651 16.0946C19.4651 13.9811 20.4512 11.9541 22.2065 10.4596C23.9617 8.96517 26.3424 8.12558 28.8247 8.12558ZM28.8247 28.0481C39.1671 28.0481 47.5439 31.6142 47.5439 36.0171V40.0016H10.1055V36.0171C10.1055 31.6142 18.4823 28.0481 28.8247 28.0481Z" fill="#D9D9D9"/>
</svg>
