<svg width="32" height="40" viewBox="0 0 32 40" fill="none" xmlns="http://www.w3.org/2000/svg">
<path d="M16 16C13.8 16 11.9167 15.2167 10.35 13.65C8.78333 12.0833 8 10.2 8 8C8 5.8 8.78333 3.91667 10.35 2.35C11.9167 0.783333 13.8 0 16 0C18.2 0 20.0833 0.783333 21.65 2.35C23.2167 3.91667 24 5.8 24 8C24 10.2 23.2167 12.0833 21.65 13.65C20.0833 15.2167 18.2 16 16 16ZM11.5 36C11.0667 36 10.7087 35.858 10.426 35.574C10.1433 35.29 10.0013 34.932 10 34.5C9.99867 34.068 10.1407 33.71 10.426 33.426C10.7113 33.142 11.0693 33 11.5 33H15.3L13.9 36H11.5ZM0 40V26.45C0 25.3167 0.283334 24.2753 0.85 23.326C1.41667 22.3767 2.2 21.6347 3.2 21.1C5.2 20.1 7.27533 19.3333 9.426 18.8C11.5767 18.2667 13.768 18 16 18C17 18 18.0087 18.05 19.026 18.15C20.0433 18.25 21.0347 18.4167 22 18.65L17.15 29H11.5C9.96667 29 8.66667 29.5333 7.6 30.6C6.53333 31.6667 6 32.9667 6 34.5C6 36.0333 6.53333 37.3333 7.6 38.4C8.66667 39.4667 9.96667 40 11.5 40H0ZM25.9 40V19.85C26.4 20.0167 26.892 20.2087 27.376 20.426C27.86 20.6433 28.3347 20.868 28.8 21.1C29.8 21.6333 30.5833 22.3753 31.15 23.326C31.7167 24.2767 32 25.318 32 26.45V36C32 37.1 31.6087 38.042 30.826 38.826C30.0433 39.61 29.1013 40.0013 28 40H25.9Z" fill="#FF4000"/>
</svg>
