<svg width="48" height="48" viewBox="0 0 48 48" fill="none" xmlns="http://www.w3.org/2000/svg">
<path d="M10 19C10 19 4.857 21 4 28M38 19C38 19 43.143 21 44 28M18 19C18 19 22.8 20.167 24 26C25.2 20.167 30 19 30 19M20 34C20 34 15.8 34.75 14 40M28 34C28 34 32.2 34.75 34 40" stroke="#FF4000" stroke-width="4" stroke-linecap="round"/>
<path d="M24 36C26.7614 36 29 33.7614 29 31C29 28.2386 26.7614 26 24 26C21.2386 26 19 28.2386 19 31C19 33.7614 21.2386 36 24 36Z" stroke="#FF4000" stroke-width="4" stroke-linecap="round" stroke-linejoin="round"/>
<path d="M34 20C37.3137 20 40 17.3137 40 14C40 10.6863 37.3137 8 34 8C30.6863 8 28 10.6863 28 14C28 17.3137 30.6863 20 34 20Z" stroke="#FF4000" stroke-width="4" stroke-linecap="round" stroke-linejoin="round"/>
<path d="M14 20C17.3137 20 20 17.3137 20 14C20 10.6863 17.3137 8 14 8C10.6863 8 8 10.6863 8 14C8 17.3137 10.6863 20 14 20Z" stroke="#FF4000" stroke-width="4" stroke-linecap="round" stroke-linejoin="round"/>
</svg>
