<svg width="54" height="54" viewBox="0 0 54 54" fill="none" xmlns="http://www.w3.org/2000/svg">
<path d="M46.1326 7.85712C43.6444 5.35722 40.6811 3.37505 37.4153 2.02612C34.1495 0.677192 30.6465 -0.0115105 27.1105 0.000145516C12.2944 0.000145516 0.219039 12.0151 0.219039 26.7571C0.219039 31.4821 1.46728 36.0721 3.80095 40.122L0.00195312 54L14.2482 50.274C18.1829 52.407 22.606 53.541 27.1105 53.541C41.9266 53.541 54.002 41.526 54.002 26.7841C54.002 19.6291 51.207 12.9061 46.1326 7.85712ZM27.1105 49.005C23.0944 49.005 19.1597 47.925 15.7135 45.9L14.8994 45.414L6.43311 47.628L8.68537 39.42L8.14266 38.583C5.91088 35.0381 4.72607 30.9401 4.72356 26.7571C4.72356 14.4991 14.7638 4.50913 27.0834 4.50913C33.0532 4.50913 38.6703 6.83113 42.8763 11.0431C44.9593 13.1055 46.61 15.559 47.7326 18.2611C48.8552 20.9632 49.4274 23.8602 49.416 26.7841C49.4703 39.042 39.4301 49.005 27.1105 49.005ZM39.3758 32.3731C38.6974 32.0491 35.3869 30.4291 34.7899 30.1861C34.1658 29.9701 33.7316 29.8621 33.2703 30.5101C32.809 31.1851 31.5336 32.6971 31.1537 33.1291C30.7738 33.5881 30.3668 33.6421 29.6884 33.2911C29.01 32.9671 26.8391 32.2381 24.2884 29.9701C22.2803 28.1881 20.9507 26.0011 20.5437 25.3261C20.1638 24.6511 20.4894 24.3001 20.8422 23.9491C21.1406 23.6521 21.5205 23.1661 21.8462 22.7881C22.1718 22.4101 22.3075 22.1131 22.5246 21.6811C22.7417 21.2221 22.6331 20.8441 22.4703 20.5201C22.3075 20.1961 20.9507 16.9021 20.408 15.5521C19.8653 14.2561 19.2954 14.4181 18.8884 14.3911H17.5859C17.1246 14.3911 16.419 14.5531 15.7949 15.2281C15.1979 15.9031 13.4612 17.5231 13.4612 20.8171C13.4612 24.1111 15.8763 27.2971 16.202 27.7291C16.5276 28.1881 20.9507 34.9381 27.6803 37.827C29.2813 38.529 30.5296 38.934 31.5065 39.231C33.1075 39.744 34.5728 39.663 35.7396 39.501C37.0422 39.312 39.7286 37.881 40.2713 36.3151C40.8411 34.7491 40.8411 33.4261 40.6512 33.1291C40.4613 32.8321 40.0542 32.6971 39.3758 32.3731Z" fill="#FF4000"/>
</svg>
